<?xml version="1.0" standalone="no"?>
<!DOCTYPE svg PUBLIC "-//W3C//DTD SVG 20010904//EN"
 "http://www.w3.org/TR/2001/REC-SVG-20010904/DTD/svg10.dtd">
<svg version="1.0" xmlns="http://www.w3.org/2000/svg"
 width="181.000000pt" height="181.000000pt" viewBox="0 0 181.000000 181.000000"
 preserveAspectRatio="xMidYMid meet">
<metadata>
Created by potrace 1.11, written by Peter Selinger 2001-2013
</metadata>
<g transform="translate(0.000000,181.000000) scale(0.100000,-0.100000)"
fill="#000000" stroke="none">
<path d="M417 1473 c-15 -18 -17 -50 -17 -341 0 -387 -17 -352 170 -352 147 0
193 11 236 54 37 37 54 89 54 164 0 66 -19 114 -59 143 l-31 23 24 25 c33 35
46 72 46 132 0 62 -27 118 -72 144 -28 17 -55 20 -183 23 -138 3 -152 2 -168
-15z m256 -104 c31 -17 37 -28 37 -73 0 -62 -20 -76 -107 -76 l-73 0 0 80 0
80 61 0 c33 0 70 -5 82 -11z m34 -283 c33 -39 33 -124 -1 -162 -21 -25 -29
-28 -97 -28 l-74 -1 -3 99 c-1 55 0 106 3 114 4 12 20 14 77 10 62 -5 75 -9
95 -32z"/>
<path d="M948 1480 c-17 -10 -18 -37 -18 -340 0 -393 -14 -360 152 -360 59 0
130 5 158 11 102 22 145 92 138 225 -3 76 -4 77 -46 114 l-42 37 21 19 c35 31
49 70 49 131 0 75 -23 120 -75 147 -34 18 -61 21 -180 24 -87 1 -147 -2 -157
-8z m267 -125 c31 -30 33 -83 6 -116 -17 -21 -28 -24 -93 -24 l-73 0 -3 83 -3
82 71 0 c62 0 74 -3 95 -25z m16 -262 c47 -47 30 -172 -27 -193 -15 -6 -55
-10 -88 -8 l-61 3 -3 99 c-1 55 0 106 3 114 4 11 22 13 80 10 60 -3 79 -8 96
-25z"/>
<path d="M465 705 c-40 -21 -55 -43 -55 -81 0 -51 52 -58 64 -9 9 37 42 50 72
30 13 -8 24 -20 24 -26 0 -24 -32 -67 -68 -92 -66 -46 -93 -81 -99 -127 -8
-61 8 -70 123 -70 71 0 94 3 105 16 9 11 10 20 2 32 -8 13 -28 18 -87 20 -55
2 -76 6 -73 15 2 7 36 38 75 70 55 45 74 67 83 98 16 52 -5 99 -54 122 -43 21
-73 21 -112 2z"/>
<path d="M734 704 c-17 -8 -37 -27 -45 -41 -19 -36 -19 -240 0 -276 35 -65
152 -75 203 -18 27 31 28 34 28 154 0 137 -8 159 -66 183 -43 18 -81 17 -120
-2z m94 -60 c20 -14 22 -23 22 -119 0 -81 -3 -107 -16 -119 -19 -20 -44 -20
-70 -2 -17 13 -19 27 -19 121 0 94 2 108 19 121 25 18 36 18 64 -2z"/>
<path d="M988 689 c-37 -30 -49 -61 -28 -74 6 -4 17 -1 25 5 13 11 15 -7 15
-133 0 -122 2 -146 16 -151 8 -3 24 -1 35 4 18 10 19 23 19 183 0 212 -7 227
-82 166z"/>
<path d="M1174 706 c-53 -23 -68 -121 -23 -149 17 -10 16 -12 -6 -33 -77 -71
-19 -194 90 -194 110 0 166 123 89 195 -20 19 -22 24 -9 29 26 10 38 56 25 99
-18 60 -94 84 -166 53z m94 -58 c28 -28 7 -78 -33 -78 -27 0 -45 18 -45 45 0
27 18 45 45 45 12 0 26 -5 33 -12z m16 -170 c16 -46 -3 -82 -44 -86 -38 -4
-60 16 -60 56 0 45 18 63 58 60 30 -2 38 -8 46 -30z"/>
<path d="M1764 655 c-9 -21 3 -45 21 -45 10 0 15 10 15 30 0 32 -26 43 -36 15z"/>
<path d="M1664 626 c-10 -26 4 -48 28 -44 17 2 23 10 23 28 0 18 -6 26 -23 28
-13 2 -25 -3 -28 -12z"/>
<path d="M1730 555 c-10 -12 -10 -18 0 -30 20 -25 55 -15 55 15 0 30 -35 40
-55 15z"/>
<path d="M1633 543 c-18 -7 -16 -52 3 -60 23 -9 51 23 38 44 -12 19 -23 24
-41 16z"/>
<path d="M1690 466 c-27 -33 18 -72 48 -42 13 13 14 20 6 34 -15 23 -38 26
-54 8z"/>
<path d="M1559 454 c-15 -18 -2 -47 24 -52 25 -5 40 33 21 52 -19 20 -28 20
-45 0z"/>
<path d="M1620 381 c-7 -15 -6 -24 6 -36 19 -18 33 -16 48 7 7 12 6 21 -3 32
-18 22 -38 20 -51 -3z"/>
<path d="M1540 326 c-18 -22 -5 -48 22 -44 17 2 23 10 23 28 0 29 -26 38 -45
16z"/>
<path d="M1692 318 c-16 -16 -15 -33 2 -47 28 -23 68 17 45 45 -14 17 -31 18
-47 2z"/>
<path d="M1446 294 c-17 -16 -12 -40 9 -48 19 -7 46 20 39 39 -8 21 -32 26
-48 9z"/>
<path d="M1760 245 c-17 -20 -6 -45 20 -45 17 0 21 5 18 27 -4 31 -20 40 -38
18z"/>
<path d="M1512 228 c-16 -16 -15 -33 4 -48 22 -19 54 12 38 37 -14 22 -27 26
-42 11z"/>
<path d="M1413 184 c-3 -8 2 -23 11 -32 15 -15 17 -15 32 0 9 9 14 24 11 32
-8 21 -46 21 -54 0z"/>
<path d="M1666 185 c-8 -22 4 -45 24 -45 28 0 45 27 30 45 -7 8 -20 15 -30 15
-10 0 -20 -7 -24 -15z"/>
<path d="M1322 158 c-18 -18 -15 -36 7 -48 15 -7 23 -6 35 6 9 8 16 19 16 23
0 11 -23 31 -35 31 -6 0 -16 -5 -23 -12z"/>
<path d="M1570 151 c-7 -15 -6 -24 6 -36 19 -18 33 -16 48 7 7 12 6 21 -3 32
-18 22 -38 20 -51 -3z"/>
<path d="M1184 146 c-10 -26 4 -48 28 -44 17 2 23 10 23 28 0 18 -6 26 -23 28
-13 2 -25 -3 -28 -12z"/>
<path d="M1086 124 c-19 -19 -17 -33 7 -48 24 -15 56 17 41 41 -15 24 -29 26
-48 7z"/>
<path d="M1486 124 c-17 -16 -12 -40 9 -48 19 -7 46 20 39 39 -8 21 -32 26
-48 9z"/>
<path d="M1384 86 c-10 -26 4 -48 28 -44 17 2 23 10 23 28 0 18 -6 26 -23 28
-13 2 -25 -3 -28 -12z"/>
<path d="M1642 88 c-18 -18 -15 -36 7 -48 15 -7 23 -6 35 6 9 8 16 19 16 23 0
11 -23 31 -35 31 -6 0 -16 -5 -23 -12z"/>
<path d="M874 66 c-10 -26 4 -48 28 -44 17 2 23 10 23 28 0 18 -6 26 -23 28
-13 2 -25 -3 -28 -12z"/>
<path d="M1149 54 c-15 -18 -2 -47 24 -52 25 -5 40 33 21 52 -19 20 -28 20
-45 0z"/>
<path d="M1549 54 c-9 -11 -10 -20 -3 -32 15 -23 29 -25 48 -7 12 12 13 21 6
36 -13 23 -33 25 -51 3z"/>
<path d="M1052 28 c-19 -19 -14 -28 18 -28 32 0 42 23 14 34 -20 8 -18 8 -32
-6z"/>
<path d="M1323 15 c-17 -13 -16 -14 15 -15 33 0 43 13 18 23 -8 3 -22 -1 -33
-8z"/>
<path d="M958 3 c6 -2 18 -2 25 0 6 3 1 5 -13 5 -14 0 -19 -2 -12 -5z"/>
</g>
</svg>
