<?xml version="1.0" encoding="utf-8"?>
<!-- Generator: Adobe Illustrator 21.1.0, SVG Export Plug-In . SVG Version: 6.00 Build 0)  -->
<svg version="1.1" id="Warstwa_1" xmlns="http://www.w3.org/2000/svg" xmlns:xlink="http://www.w3.org/1999/xlink" x="0px" y="0px"
	 viewBox="0 0 700 280" style="enable-background:new 0 0 700 280;" xml:space="preserve">
<style type="text/css">
	.st0{fill:#39649D;}
	.st1{fill:#33B3C9;}
	.st2{enable-background:new    ;}
</style>
<g>
	<g id="Layer0_0_FILL">
		<path class="st0" d="M456.3,217c2.1-2,3.1-4.5,3.1-7.4s-1-5.4-3.1-7.5c-2-2-4.5-3-7.5-3c-2.9,0-5.4,1-7.5,3
			c-2,2.1-3.1,4.6-3.1,7.5s1,5.4,3.1,7.4c2.1,2.1,4.6,3.1,7.5,3.1C451.7,220.1,454.2,219.1,456.3,217 M483.3,222.9
			c2.9,0,5.4-1,7.5-3.1c2.1-2,3.1-4.5,3.1-7.4s-1-5.4-3.1-7.4c-2-2-4.5-3.1-7.5-3.1c-2.9,0-5.4,1-7.5,3.1c-2,2.1-3.1,4.5-3.1,7.4
			s1,5.4,3.1,7.4C477.9,221.9,480.4,222.9,483.3,222.9 M415.3,207.9c-2.9,0-5.4,1-7.5,3c-2,2.1-3.1,4.5-3.1,7.5c0,2.9,1,5.4,3.1,7.4
			c2.1,2.1,4.6,3.1,7.5,3.1c2.9,0,5.4-1,7.5-3.1c2.1-2,3.1-4.5,3.1-7.4c0-2.9-1-5.4-3.1-7.5C420.7,209,418.2,207.9,415.3,207.9
			 M523.5,230.9c0-2.9-1-5.4-3.1-7.5c-2-2-4.5-3-7.5-3c-2.9,0-5.4,1-7.5,3c-2,2.1-3.1,4.5-3.1,7.5c0,2.9,1,5.4,3.1,7.4
			c2.1,2.1,4.6,3.1,7.5,3.1c2.9,0,5.4-1,7.5-3.1C522.5,236.3,523.5,233.8,523.5,230.9z"/>
		<path class="st1" d="M347.3,247.9c2.9,0,5.4-1,7.5-3.1c2.1-2,3.1-4.5,3.1-7.4s-1-5.4-3.1-7.4c-2-2-4.5-3.1-7.5-3.1
			c-2.9,0-5.4,1-7.5,3.1c-2,2.1-3.1,4.5-3.1,7.4s1,5.4,3.1,7.4C341.9,246.9,344.4,247.9,347.3,247.9 M392.7,229.8
			c0-2.9-1-5.4-3.1-7.5c-2-2-4.5-3-7.5-3s-5.4,1-7.5,3c-2,2.1-3.1,4.6-3.1,7.5s1,5.4,3.1,7.4c2.1,2.1,4.6,3.1,7.5,3.1s5.4-1,7.5-3.1
			C391.6,235.2,392.7,232.7,392.7,229.8 M289.7,223.8c0-2.9-1-5.4-3.1-7.5c-2-2-4.5-3-7.5-3c-2.9,0-5.4,1-7.5,3
			c-2,2.1-3.1,4.6-3.1,7.5c0,2.9,1,5.4,3.1,7.4c2.1,2.1,4.6,3.1,7.5,3.1c2.9,0,5.4-1,7.5-3.1C288.6,229.2,289.7,226.7,289.7,223.8
			 M304.4,228.3c-2,2.1-3.1,4.5-3.1,7.4c0,2.9,1,5.4,3.1,7.4c2.1,2.1,4.6,3.1,7.5,3.1c2.9,0,5.4-1,7.5-3.1c2.1-2,3.1-4.5,3.1-7.4
			c0-2.9-1-5.4-3.1-7.4c-2-2-4.5-3.1-7.5-3.1C309,225.2,306.5,226.3,304.4,228.3 M250,194.2c-2.9,0-5.4,1-7.5,3
			c-2,2.1-3.1,4.5-3.1,7.5c0,2.9,1,5.4,3.1,7.4c2.1,2.1,4.6,3.1,7.5,3.1c2.9,0,5.4-1,7.5-3.1c2.1-2,3.1-4.5,3.1-7.4
			c0-2.9-1-5.4-3.1-7.5C255.5,195.2,253,194.2,250,194.2z"/>
	</g>
	<g class="st2">
		<path class="st0" d="M78.4,170.6v-109c0-2.1,0.9-3.8,2.9-5c1.9-1.2,4.1-1.8,6.7-1.8h32.4c22.5,0,33.7,9.8,33.7,29.5
			c0,13.6-4.8,22.5-14.3,26.7c5.7,2.2,10,5.4,12.9,9.5c2.9,4.1,4.4,10,4.4,17.9v3.5c0,12.4-3,21.4-9.1,27.1
			c-6,5.6-14.2,8.5-24.5,8.5H87.9c-2.8,0-5.1-0.7-6.9-2C79.3,173.9,78.4,172.3,78.4,170.6z M100,102.3h18.8c4.4,0,7.7-1.3,10-3.9
			c2.3-2.6,3.4-6.1,3.4-10.6c0-4.4-1.2-7.8-3.6-10.3c-2.4-2.5-5.7-3.8-10-3.8H100V102.3z M100,158.1h19c10.8,0,16.3-6.1,16.3-18.3
			v-2.7c0-6.3-1.4-10.8-4.1-13.6c-2.7-2.8-6.8-4.2-12.2-4.2h-19V158.1z"/>
		<path class="st0" d="M162.2,204.7c0-6.3,1.8-9.5,5.5-9.5c5.3,0,10.4-1.9,15.5-5.7c5.1-3.8,7.9-10,8.5-18.8l-28.8-61.2
			c-0.4-1.1-0.7-2-0.7-2.8c0-2.7,1.6-5,4.9-7.2c3.3-2.1,6.5-3.2,9.5-3.2c3.4,0,5.4,1.2,6.2,3.7l20.1,49.7l16.3-49.7
			c0.8-2.4,2.7-3.7,5.7-3.7c2.9,0,6.1,1.1,9.6,3.2c3.5,2.2,5.2,4.6,5.2,7.4c0,0.9-0.2,1.7-0.5,2.5l-24.5,62.6l-2.9,7.4
			c-1.3,3.8-2.3,6.4-2.9,7.9c-0.6,1.5-1.7,3.7-3.2,6.8c-1.5,3.1-2.9,5.3-4,6.7c-1.2,1.4-2.8,3.1-4.9,5.2c-2.1,2.1-4.3,3.6-6.5,4.5
			c-2.2,0.9-4.8,1.8-8,2.5c-3.1,0.7-6.5,1.1-10.2,1.1c-3.2,0-5.7-0.6-7.4-1.9C163.1,211.1,162.2,208.5,162.2,204.7z"/>
		<path class="st0" d="M249.3,150.4V70c0-1.9,1.1-3.5,3.4-4.7c2.2-1.3,4.7-1.9,7.4-1.9c2.9,0,5.5,0.6,7.6,1.9
			c2.2,1.2,3.3,2.8,3.3,4.6v27.8h19.8c1.7,0,3,0.9,4,2.5s1.5,3.7,1.5,6c0,2.3-0.5,4.3-1.5,6s-2.3,2.5-4,2.5h-19.8v35
			c0,3.1,0.7,5.3,2.1,6.5c1.4,1.3,3.8,1.9,7.3,1.9h6.5c2.9,0,5.2,0.9,6.8,2.8c1.6,1.9,2.4,4.1,2.4,6.7c0,2.7-0.8,5-2.4,6.8
			c-1.6,1.9-3.9,2.8-6.8,2.8h-6.5C259.6,177.3,249.3,168.3,249.3,150.4z"/>
		<path class="st0" d="M303.8,144.4v-14.3c0-9.2,3.6-17,10.7-23.6c7.2-6.6,15.8-9.9,26-9.9c9.5,0,17.6,3,24.4,9
			c6.8,6,10.1,13.6,10.1,22.7c0,3.3-0.4,6.1-1.3,8.2c-0.8,2.2-2.1,3.7-3.9,4.6c-1.7,0.9-3.3,1.4-4.8,1.7c-1.5,0.2-3.4,0.3-5.7,0.3
			h-34v2.5c0,4.8,1.8,8.7,5.4,11.7c3.6,3,8.3,4.4,14.3,4.4c4.2,0,8.4-1.1,12.6-3.2c4.1-2.1,6.8-3.2,8.1-3.2c2.3,0,4.3,1.1,5.9,3.3
			c1.6,2.2,2.3,4.3,2.3,6.3c0,3.1-2.8,6.2-8.5,9.3c-5.6,3.1-12.7,4.6-21,4.6c-12,0-21.7-3.2-29.3-9.5
			C307.6,163,303.8,154.7,303.8,144.4z M325.4,130.3h24.5c1.8,0,3-0.3,3.8-0.9c0.7-0.6,1.1-1.7,1.1-3.4c0-3.7-1.4-6.6-4.3-8.9
			c-2.9-2.3-6.3-3.4-10.5-3.4c-3.9,0-7.3,1.1-10.2,3.4c-2.9,2.2-4.4,5.2-4.4,8.8V130.3z"/>
	</g>
	<g class="st2">
		<path class="st1" d="M389.7,170.6v-109c0-2.1,0.9-3.8,2.9-5c1.9-1.2,4.1-1.8,6.7-1.8h32.4c22.5,0,33.7,9.8,33.7,29.5
			c0,13.6-4.8,22.5-14.3,26.7c5.7,2.2,10,5.4,12.9,9.5c2.9,4.1,4.4,10,4.4,17.9v3.5c0,12.4-3,21.4-9.1,27.1
			c-6,5.6-14.2,8.5-24.5,8.5h-35.6c-2.8,0-5.1-0.7-6.9-2C390.6,173.9,389.7,172.3,389.7,170.6z M411.3,102.3h18.8
			c4.4,0,7.7-1.3,10-3.9c2.3-2.6,3.4-6.1,3.4-10.6c0-4.4-1.2-7.8-3.6-10.3c-2.4-2.5-5.7-3.8-10-3.8h-18.6V102.3z M411.3,158.1h19
			c10.8,0,16.3-6.1,16.3-18.3v-2.7c0-6.3-1.4-10.8-4.1-13.6c-2.7-2.8-6.8-4.2-12.2-4.2h-19V158.1z"/>
		<path class="st1" d="M477.5,155.8c0-8.8,3.4-15,10.1-18.6c6.7-3.6,16.4-5.4,29-5.4h6.9v-2.2c0-4.3-1.2-8-3.6-11.1
			c-2.4-3.2-6.1-4.7-11.2-4.7c-5,0-9.3,1-12.9,2.9c-3.6,1.9-5.6,2.9-6.2,2.9c-2.2,0-4-1.1-5.4-3.4c-1.3-2.2-2-4.7-2-7.4
			c0-3.2,2.9-6.1,8.6-8.5c5.8-2.4,11.8-3.6,18.2-3.6c12.2,0,21.2,3.1,27.2,9.3c5.9,6.2,8.9,14,8.9,23.4v41.1c0,1.9-1,3.5-3,4.9
			s-4.5,2-7.5,2c-2.8,0-5.1-0.7-7-2.2c-1.8-1.4-2.8-3.2-2.8-5.2v-5.2c-7.7,9.4-16.2,14.1-25.5,14.1c-6.4,0-11.6-2-15.7-5.9
			C479.6,169,477.5,163.3,477.5,155.8z M499.2,153.1c0,2.9,0.8,5,2.4,6.4c1.6,1.4,3.8,2.1,6.5,2.1c3.6,0,7-1.6,10.4-4.8
			s5-6.7,5-10.5V143H521c-6.8,0-12.2,0.7-16,2C501.1,146.4,499.2,149,499.2,153.1z"/>
		<path class="st1" d="M552.9,204.7c0-6.3,1.8-9.5,5.5-9.5c5.3,0,10.4-1.9,15.5-5.7c5.1-3.8,7.9-10,8.5-18.8l-28.8-61.2
			c-0.4-1.1-0.7-2-0.7-2.8c0-2.7,1.6-5,4.9-7.2c3.3-2.1,6.5-3.2,9.5-3.2c3.4,0,5.4,1.2,6.2,3.7l20.1,49.7l16.3-49.7
			c0.8-2.4,2.7-3.7,5.7-3.7c2.9,0,6.1,1.1,9.6,3.2c3.5,2.2,5.2,4.6,5.2,7.4c0,0.9-0.2,1.7-0.5,2.5l-24.5,62.6l-2.9,7.4
			c-1.3,3.8-2.3,6.4-2.9,7.9c-0.6,1.5-1.7,3.7-3.2,6.8c-1.5,3.1-2.9,5.3-4,6.7c-1.2,1.4-2.8,3.1-4.9,5.2c-2.1,2.1-4.3,3.6-6.5,4.5
			c-2.2,0.9-4.8,1.8-8,2.5c-3.1,0.7-6.5,1.1-10.2,1.1c-3.2,0-5.7-0.6-7.4-1.9C553.7,211.1,552.9,208.5,552.9,204.7z"/>
	</g>
</g>
</svg>
