<?xml version="1.0" encoding="utf-8"?>
<!-- Generator: Adobe Illustrator 21.1.0, SVG Export Plug-In . SVG Version: 6.00 Build 0)  -->
<svg version="1.1" id="Warstwa_1" xmlns="http://www.w3.org/2000/svg" xmlns:xlink="http://www.w3.org/1999/xlink" x="0px" y="0px"
	 viewBox="0 0 700 280" style="enable-background:new 0 0 700 280;" xml:space="preserve">
<style type="text/css">
	.st0{fill:#FFCD02;}
	.st1{fill:#33B3C9;}
	.st2{fill:#5C9CC1;}
</style>
<g>
	<g>
		<path class="st0" d="M45.4,172.1v-109c0-2.1,0.9-3.8,2.9-5c1.9-1.2,4.1-1.8,6.7-1.8h32.4c22.5,0,33.7,9.8,33.7,29.5
			c0,13.6-4.8,22.5-14.3,26.7c5.7,2.2,10,5.4,12.9,9.5c2.9,4.1,4.4,10,4.4,17.9v3.5c0,12.4-3,21.4-9.1,27.1
			c-6,5.6-14.2,8.5-24.5,8.5H55c-2.8,0-5.1-0.7-6.9-2C46.3,175.5,45.4,173.9,45.4,172.1z M67.1,103.9h18.8c4.4,0,7.7-1.3,10-3.9
			c2.3-2.6,3.4-6.1,3.4-10.6c0-4.4-1.2-7.8-3.6-10.3c-2.4-2.5-5.7-3.8-10-3.8H67.1V103.9z M67.1,159.7h19c10.8,0,16.3-6.1,16.3-18.3
			v-2.7c0-6.3-1.4-10.8-4.1-13.6c-2.7-2.8-6.8-4.2-12.2-4.2h-19V159.7z"/>
		<path class="st0" d="M130.6,206.2c0-6.3,1.8-9.5,5.5-9.5c5.3,0,10.4-1.9,15.5-5.7c5.1-3.8,7.9-10,8.5-18.8l-28.8-61.2
			c-0.4-1.1-0.7-2-0.7-2.8c0-2.7,1.6-5,4.9-7.2C138.9,99,142,98,145,98c3.4,0,5.4,1.2,6.2,3.7l20.1,49.7l16.3-49.7
			c0.8-2.4,2.7-3.7,5.7-3.7c2.9,0,6.1,1.1,9.6,3.2c3.5,2.2,5.2,4.6,5.2,7.4c0,0.9-0.2,1.7-0.5,2.5l-24.5,62.6l-2.9,7.4
			c-1.3,3.8-2.3,6.4-2.9,7.9c-0.6,1.5-1.7,3.7-3.2,6.8c-1.5,3.1-2.9,5.3-4,6.7c-1.2,1.4-2.8,3.1-4.9,5.2c-2.1,2.1-4.3,3.6-6.5,4.5
			c-2.2,0.9-4.8,1.8-8,2.5c-3.1,0.7-6.5,1.1-10.2,1.1c-3.2,0-5.7-0.6-7.4-1.9C131.5,212.7,130.6,210.1,130.6,206.2z"/>
		<path class="st0" d="M217.7,152V71.6c0-1.9,1.1-3.5,3.4-4.7c2.2-1.3,4.7-1.9,7.4-1.9c2.9,0,5.5,0.6,7.6,1.9
			c2.2,1.2,3.3,2.8,3.3,4.6v27.8h19.8c1.7,0,3,0.9,4,2.5c1,1.7,1.5,3.7,1.5,6c0,2.3-0.5,4.3-1.5,6c-1,1.7-2.3,2.5-4,2.5h-19.8v35
			c0,3.1,0.7,5.3,2.1,6.5c1.4,1.3,3.8,1.9,7.3,1.9h6.5c2.9,0,5.2,0.9,6.8,2.8c1.6,1.9,2.4,4.1,2.4,6.7c0,2.7-0.8,5-2.4,6.8
			c-1.6,1.9-3.9,2.8-6.8,2.8h-6.5C228,178.8,217.7,169.9,217.7,152z"/>
		<path class="st0" d="M273,146v-14.3c0-9.2,3.6-17,10.7-23.6c7.2-6.6,15.8-9.9,26-9.9c9.5,0,17.6,3,24.4,9
			c6.8,6,10.1,13.6,10.1,22.7c0,3.3-0.4,6.1-1.3,8.2c-0.8,2.2-2.1,3.7-3.9,4.6c-1.7,0.9-3.3,1.4-4.8,1.7c-1.5,0.2-3.4,0.3-5.7,0.3
			h-34v2.5c0,4.8,1.8,8.7,5.4,11.7c3.6,3,8.3,4.4,14.3,4.4c4.2,0,8.4-1.1,12.6-3.2c4.1-2.1,6.8-3.2,8.1-3.2c2.3,0,4.3,1.1,5.9,3.3
			c1.6,2.2,2.3,4.3,2.3,6.3c0,3.1-2.8,6.2-8.5,9.3c-5.6,3.1-12.7,4.6-21,4.6c-12,0-21.7-3.2-29.3-9.5C276.8,164.5,273,156.2,273,146
			z M294.6,131.9h24.5c1.8,0,3-0.3,3.8-0.9c0.7-0.6,1.1-1.7,1.1-3.4c0-3.7-1.4-6.6-4.3-8.9c-2.9-2.3-6.3-3.4-10.5-3.4
			c-3.9,0-7.3,1.1-10.2,3.4c-2.9,2.2-4.4,5.2-4.4,8.8V131.9z"/>
	</g>
	<g>
		<path class="st1" d="M484,96.1c-6.7,6.9-16.5,11.8-29.4,14.8c6.9,1.9,12.2,5,15.8,9.3c3.6,4.3,5.4,9.3,5.4,14.8
			c0,8.8-2.8,16.5-8.3,23c-5.5,6.5-13.6,11.5-24.2,15c-10.6,3.5-23.4,5.3-38.4,5.3c-5.6,0-10.1-0.2-13.4-0.5c-0.1,3.1-1.5,5.5-4,7
			c-2.6,1.6-5.9,2.3-9.9,2.3s-6.8-0.9-8.3-2.7c-1.5-1.8-2.2-4.4-1.9-7.9c1-15.7,3-32.1,5.9-49.2c2.9-17.2,6.6-33.7,11.1-49.7
			c0.8-2.8,2.3-4.8,4.7-5.9c2.3-1.1,5.4-1.7,9.2-1.7c6.8,0,10.2,1.9,10.2,5.7c0,1.6-0.3,3.4-1,5.4c-2.9,8.7-5.8,20.5-8.7,35.5
			c-2.9,14.9-5,29.2-6.2,42.7c5.4,0.4,9.7,0.7,13.1,0.7c15.7,0,27.1-2.3,34.5-6.8c7.3-4.5,11-10.3,11-17.4c0-4.9-2.1-9.1-6.3-12.4
			c-4.2-3.4-11.2-5.2-21-5.5c-2.2-0.1-3.8-0.7-4.7-1.7c-0.9-1-1.3-2.6-1.3-4.9c0-3.2,0.7-5.9,2-7.9s3.8-3.1,7.4-3.2
			c7.9-0.2,15.1-1.4,21.6-3.5c6.4-2.1,11.5-5.1,15.2-9c3.7-3.9,5.5-8.4,5.5-13.5c0-6.5-3.2-11.6-9.6-15.3
			c-6.4-3.7-16.2-5.6-29.4-5.6c-12,0-23.5,1.5-34.7,4.6c-11.2,3.1-20.7,7-28.5,11.7c-3.6,2.1-6.6,3.2-9.1,3.2c-2,0-3.6-0.7-4.6-2.1
			c-1.1-1.4-1.6-3.2-1.6-5.3c0-2.8,0.6-5.2,1.8-7.2s4-4.3,8.5-6.9c9.4-5.4,20.4-9.6,33-12.6c12.6-3,25.5-4.5,38.7-4.5
			c20.2,0,35.3,3.4,45.3,10.2c10,6.8,14.9,15.8,14.9,27C494.1,81,490.7,89.2,484,96.1z"/>
		<path class="st1" d="M499.3,172.1c-4.1-5-6.2-11.6-6.2-19.8c0-8.9,2.1-17.4,6.2-25.4c4.1-8,9.6-14.4,16.5-19.3
			c6.9-4.9,14.2-7.3,21.9-7.3c2.5,0,4.1,0.5,4.9,1.4c0.8,1,1.5,2.7,2.1,5.1c2.3-0.4,4.8-0.7,7.4-0.7c5.5,0,8.2,2,8.2,5.9
			c0,2.3-0.8,7.9-2.5,16.8c-2.6,12.9-3.9,21.8-3.9,26.8c0,1.7,0.4,3,1.3,4s1.9,1.5,3.3,1.5c2.1,0,4.7-1.4,7.7-4.1
			c3-2.7,7.1-7.2,12.2-13.3c1.3-1.6,2.9-2.3,4.5-2.3c1.5,0,2.6,0.7,3.4,2c0.8,1.3,1.3,3.2,1.3,5.5c0,4.5-1.1,7.9-3.2,10.4
			c-4.6,5.7-9.4,10.5-14.6,14.4c-5.1,3.9-10.1,5.9-14.9,5.9c-3.7,0-7.1-1.3-10.1-3.8c-3.1-2.5-5.4-6-7-10.3
			c-5.8,9.4-13.1,14.1-22,14.1C508.9,179.7,503.4,177.2,499.3,172.1z M529,158.4c2.2-2.9,3.9-6.8,4.9-11.6l6.2-30.9
			c-4.7,0.1-9,1.9-13,5.3c-4,3.4-7.1,7.9-9.5,13.5c-2.3,5.6-3.5,11.5-3.5,17.8c0,3.5,0.7,6,2.1,7.7c1.4,1.7,3.3,2.5,5.8,2.5
			C524.4,162.7,526.7,161.3,529,158.4z"/>
		<path class="st1" d="M663.4,143.9c0.8,1.4,1.3,3.2,1.3,5.3c0,2.6-0.4,4.6-1.2,6c-0.8,1.5-2,2.7-3.7,3.9l-32.2,21.6
			c-4.3,23.1-9.8,41.3-16.7,54.6c-6.9,13.3-15.6,19.9-26.2,19.9c-5.7,0-10.3-1.8-13.9-5.3c-3.6-3.5-5.4-8.1-5.4-13.8
			c0-5.3,1.2-10.6,3.6-16.1c2.4-5.5,6.9-11.8,13.4-18.9c6.5-7.1,15.8-15.2,27.8-24.4l0.5-3.9c0.8-4.1,1.7-10.1,2.7-17.8
			c-2.2,8.1-5.4,14.2-9.4,18.4c-4,4.2-8.3,6.3-12.7,6.3c-5,0-9.1-2.3-12.3-7c-3.2-4.6-4.8-10.4-4.8-17.4c0-8.4,0.6-16.1,1.7-23.1
			c1.1-7,3-14.4,5.5-22.2c1.1-3.4,2.7-5.8,4.7-7.2c2-1.5,5.2-2.2,9.6-2.2c2.5,0,4.2,0.4,5.1,1.2c0.9,0.8,1.4,2,1.4,3.5
			c0,0.9-0.6,3.9-1.8,9.1c-1.1,4.1-2,7.9-2.7,11.2c-0.9,4.6-1.7,9-2.3,13.2c-0.7,4.2-1,7.6-1,10.3c0,4.3,1.2,6.4,3.5,6.4
			c1.7,0,3.8-1.7,6.3-5c2.5-3.4,5.2-8.4,8.1-15.3c2.9-6.8,5.6-15.2,8.3-25.2c0.9-3.4,2.3-5.8,4.1-7.2c1.8-1.5,4.6-2.2,8.3-2.2
			c2.6,0,4.4,0.3,5.4,1c1,0.7,1.5,1.8,1.5,3.4c0,2.8-1.5,12.4-4.4,28.8l-4.4,27c8.6-6.5,17-12.4,25.2-17.8c1.5-0.9,2.7-1.3,3.9-1.3
			C661.4,141.8,662.5,142.5,663.4,143.9z M595.9,229.1c3.5-6.5,6.9-17.3,10.4-32.4c-8.6,7.3-14.8,13.9-18.7,19.9
			c-3.9,6-5.8,11.2-5.8,15.7c0,1.9,0.4,3.5,1.1,4.7c0.7,1.2,1.9,1.8,3.6,1.8C589.3,238.9,592.4,235.6,595.9,229.1z"/>
	</g>
	<g>
		<path class="st2" d="M279.3,208.1c0,2.9-1,5.4-3,7.4c-2.1,2.1-4.5,3.1-7.5,3.1c-2.9,0-5.4-1-7.4-3.1c-2.1-2-3.1-4.5-3.1-7.4
			c0-2.8,1-5.3,3.1-7.4c2-2.1,4.5-3.1,7.4-3.1c3,0,5.4,1,7.5,3.1C278.3,202.8,279.3,205.3,279.3,208.1"/>
		<g>
			<path class="st0" d="M261.4,200.7c-2.1,2.1-3.1,4.6-3.1,7.4c0,2.9,1,5.4,3.1,7.4c1.1,1.1,2.4,1.9,3.7,2.5
				c1.2,0.4,2.4,0.6,3.7,0.6c3,0,5.4-1,7.5-3.1c2-2,3-4.5,3-7.3v-0.1c0-2.8-1-5.3-3-7.4c-2.1-2.1-4.5-3.1-7.5-3.1
				C265.9,197.6,263.4,198.6,261.4,200.7"/>
			<path class="st0" d="M307.1,222.5c-0.5-1-1.2-1.9-2-2.7c-2-2-4.5-3-7.4-3c-2.9,0-5.4,1-7.4,3c-2.1,2.1-3.1,4.6-3.1,7.5
				c0,2.8,1,5.3,3.1,7.3c2,2.1,4.5,3.2,7.4,3.2c2.9,0,5.4-1.1,7.4-3.2c0.8-0.8,1.5-1.7,2-2.6c0.7-1.5,1.1-3,1.1-4.7
				C308.2,225.5,307.8,223.9,307.1,222.5"/>
			<path class="st0" d="M319.8,239.2c0,2.9,1,5.3,3,7.4c2.1,2,4.6,3.1,7.5,3.1s5.4-1.1,7.4-3.1c2.1-2.1,3.1-4.5,3.1-7.4
				s-1-5.4-3.1-7.4c-2-2.1-4.5-3.1-7.4-3.1s-5.4,1-7.5,3.1C320.8,233.8,319.8,236.3,319.8,239.2"/>
		</g>
		<g>
			<path class="st1" d="M507.8,208.4c-2-2-4.5-3-7.4-3c-2.9,0-5.4,1-7.4,3c-2.1,2-3.1,4.5-3.1,7.5c0,2.9,1,5.3,3.1,7.4
				c2,2,4.5,3.1,7.4,3.1c2.9,0,5.4-1.1,7.4-3.1c2.1-2.1,3.1-4.5,3.1-7.4C510.9,212.9,509.9,210.4,507.8,208.4"/>
			<path class="st1" d="M537.3,241.8c2-2,3.1-4.5,3.1-7.4c0-2.9-1.1-5.4-3.1-7.5c-2.1-2-4.5-3-7.4-3c-2.9,0-5.4,1-7.5,3
				c-2,2.1-3,4.6-3,7.5c0,2.9,1,5.4,3,7.4c2.1,2.1,4.6,3.1,7.5,3.1C532.8,244.9,535.2,243.9,537.3,241.8"/>
			<path class="st1" d="M458.7,205.6c-2,2-3,4.5-3,7.4c0,2.9,1,5.4,3,7.4c2.1,2.1,4.6,3.1,7.5,3.1c2.9,0,5.3-1,7.4-3.1
				c2-2,3.1-4.5,3.1-7.4c0-2.9-1.1-5.4-3.1-7.4c-2.1-2.1-4.5-3.1-7.4-3.1C463.3,202.5,460.8,203.5,458.7,205.6"/>
			<path class="st1" d="M407.3,225.8c-2-2-4.5-3-7.4-3c-2.8,0-5.3,1-7.4,3c-2.1,2.1-3.1,4.6-3.1,7.5c0,2.8,1,5.3,3.1,7.3
				c2.1,2.1,4.6,3.2,7.4,3.2c2.9,0,5.4-1.1,7.4-3.2c2.1-2,3.1-4.5,3.1-7.3C410.4,230.4,409.4,227.9,407.3,225.8"/>
			<path class="st1" d="M372.8,248.3c2-2.1,3.1-4.5,3.1-7.4c0-3-1.1-5.5-3.1-7.5s-4.5-3-7.4-3c-2.9,0-5.4,1-7.5,3c-2,2-3,4.5-3,7.5
				c0,2.9,1,5.3,3,7.4c2.1,2,4.6,3.1,7.5,3.1C368.3,251.4,370.8,250.3,372.8,248.3"/>
			<path class="st1" d="M443.3,221.9c0-2.9-1-5.4-3-7.5c-2.1-2-4.5-3-7.5-3c-2.9,0-5.4,1-7.4,3c-2.1,2.1-3.1,4.6-3.1,7.5
				c0,2.9,1,5.4,3.1,7.4c2,2.1,4.5,3.1,7.4,3.1c3,0,5.4-1,7.5-3.1C442.3,227.3,443.3,224.8,443.3,221.9"/>
		</g>
	</g>
</g>
</svg>
